HIERARCHY
ROOT Hips
{
	OFFSET 0.000000 0.000000 0.000000
	CHANNELS 6 Xposition Yposition Zposition Zrotation Yrotation Xrotation 
	JOINT LHipJoint
	{
		OFFSET 0.000000 0.000000 0.000000
		CHANNELS 3 Zrotation Yrotation Xrotation
		JOINT LeftUpLeg
		{
			OFFSET 1.363060 -1.794630 0.839290
			CHANNELS 3 Zrotation Yrotation Xrotation
			JOINT LeftLeg
			{
				OFFSET 2.448110 -6.726130 0.000000
				CHANNELS 3 Zrotation Yrotation Xrotation
				JOINT LeftFoot
				{
					OFFSET 2.562200 -7.039590 0.000000
					CHANNELS 3 Zrotation Yrotation Xrotation
					JOINT LeftToeBase
					{
						OFFSET 0.157640 -0.433110 2.322550
						CHANNELS 3 Zrotation Yrotation Xrotation
						End Site
						{
							OFFSET 0.000000 0.000000 0.000000
						}
					}
				}
			}
		}
	}
	JOINT RHipJoint
	{
		OFFSET 0.000000 0.000000 0.000000
		CHANNELS 3 Zrotation Yrotation Xrotation
		JOINT RightUpLeg
		{
			OFFSET -1.305520 -1.794630 0.839290
			CHANNELS 3 Zrotation Yrotation Xrotation
			JOINT RightLeg
			{
				OFFSET -2.542530 -6.985550 0.000000
				CHANNELS 3 Zrotation Yrotation Xrotation
				JOINT RightFoot
				{
					OFFSET -2.568260 -7.056230 0.000000
					CHANNELS 3 Zrotation Yrotation Xrotation
					JOINT RightToeBase
					{
						OFFSET -0.164730 -0.452590 2.363150
						CHANNELS 3 Zrotation Yrotation Xrotation
						End Site
						{
							OFFSET 0.000000 0.000000 0.000000
						}
					}
				}
			}
		}
	}
	JOINT LowerBack
	{
		OFFSET 0.000000 0.000000 0.000000
		CHANNELS 3 Zrotation Yrotation Xrotation
		JOINT Spine
		{
			OFFSET 0.028270 2.035590 -0.193380
			CHANNELS 3 Zrotation Yrotation Xrotation
			JOINT Spine1
			{
				OFFSET 0.056720 2.048850 -0.042750
				CHANNELS 3 Zrotation Yrotation Xrotation
				JOINT Neck
				{
					OFFSET 0.000000 0.000000 0.000000
					CHANNELS 3 Zrotation Yrotation Xrotation
					JOINT Neck1
					{
						OFFSET -0.054170 1.746240 0.172020
						CHANNELS 3 Zrotation Yrotation Xrotation
						JOINT Head
						{
							OFFSET 0.104070 1.761360 -0.123970
							CHANNELS 3 Zrotation Yrotation Xrotation
							End Site
							{
								OFFSET 0.000000 0.000000 0.000000
							}
						}
					}
				}
				JOINT LeftShoulder
				{
					OFFSET 0.000000 0.000000 0.000000
					CHANNELS 3 Zrotation Yrotation Xrotation
					JOINT LeftArm
					{
						OFFSET 3.362410 1.200890 -0.311210
						CHANNELS 3 Zrotation Yrotation Xrotation
						JOINT LeftForeArm
						{
							OFFSET 4.983000 -0.000000 -0.000000
							CHANNELS 3 Zrotation Yrotation Xrotation
							JOINT LeftHand
							{
								OFFSET 3.483560 -0.000000 -0.000000
								CHANNELS 3 Zrotation Yrotation Xrotation
								JOINT LeftFingerBase
								{
									OFFSET 0.000000 0.000000 0.000000
									CHANNELS 3 Zrotation Yrotation Xrotation
									JOINT LeftHandIndex1
									{
										OFFSET 0.715260 -0.000000 -0.000000
										CHANNELS 3 Zrotation Yrotation Xrotation
										End Site
										{
											OFFSET 0.000000 0.000000 0.000000
										}
									}
								}
								JOINT LThumb
								{
									OFFSET 0.000000 0.000000 0.000000
									CHANNELS 3 Zrotation Yrotation Xrotation
									End Site
									{
										OFFSET 0.000000 0.000000 0.000000
									}
								}
							}
						}
					}
				}
				JOINT RightShoulder
				{
					OFFSET 0.000000 0.000000 0.000000
					CHANNELS 3 Zrotation Yrotation Xrotation
					JOINT RightArm
					{
						OFFSET -3.136600 1.374050 -0.404650
						CHANNELS 3 Zrotation Yrotation Xrotation
						JOINT RightForeArm
						{
							OFFSET -5.241900 -0.000000 -0.000000
							CHANNELS 3 Zrotation Yrotation Xrotation
							JOINT RightHand
							{
								OFFSET -3.444170 -0.000000 -0.000000
								CHANNELS 3 Zrotation Yrotation Xrotation
								JOINT RightFingerBase
								{
									OFFSET 0.000000 0.000000 0.000000
									CHANNELS 3 Zrotation Yrotation Xrotation
									JOINT RightHandIndex1
									{
										OFFSET -0.622530 -0.000000 -0.000000
										CHANNELS 3 Zrotation Yrotation Xrotation
										End Site
										{
											OFFSET 0.000000 0.000000 0.000000
										}
									}
								}
								JOINT RThumb
								{
									OFFSET 0.000000 0.000000 0.000000
									CHANNELS 3 Zrotation Yrotation Xrotation
									End Site
									{
										OFFSET 0.000000 0.000000 0.000000
									}
								}
							}
						}
					}
				}
			}
		}
	}
}
MOTION
Frames: 5
Frame Time: 0.008333
-4.672418 16.127244 0.238724 -11.015599 77.787914 16.943417 -8.660748 -1.368545 1.129640 -9.511900 -2.857468 -64.272839 -1.557626 2.060915 34.452543 1.628172 7.771469 0.920514 1.852700 -0.000001 -26.150800 11.313253 -2.135774 -3.354276 2.243807 -6.740231 -12.850113 0.543240 -2.921036 40.744771 0.461371 18.172256 20.569577 8.282700 0.000000 -91.139100 -8.458872 1.282626 4.088166 -3.028522 1.566303 -2.532762 -7.577723 1.418950 -0.450894 8.266373 7.394340 3.712804 -4.710982 -0.427116 2.561312 0.000000 0.000000 0.000000 -7.558389 -0.682277 3.042855 -57.716190 -2.010965 4.273681 -4.098442 -5.722811 -0.006160 0.961200 4.190925 0.037711 -0.077722 0.041874 0.000000 0.000000 0.000000 0.000000 0.000000 0.000000 0.000000 19.287722 8.119175 -1.041846 80.968470 31.231998 32.526158 1.841247 36.977232 0.006608 3.187186 12.205090 0.351940 -0.034948 -0.245529 0.000000 0.000000 0.000000 0.000000 0.000000 0.000000 0.000000 
-4.529902 16.115709 0.234421 -9.507623 77.952439 18.581984 -8.592508 -1.434825 0.936030 -9.946925 -3.211512 -64.462206 -1.498417 2.172620 36.219506 1.706750 8.005547 -0.319494 1.700100 -0.000000 -25.368900 11.462749 -2.011759 -3.522694 1.654209 -7.319244 -13.971931 0.414743 -3.071213 42.799089 0.309865 18.304658 22.311736 8.924800 0.000001 -88.573500 -8.951204 1.197023 4.491872 -3.150290 1.483566 -2.449436 -7.634255 1.333446 -0.492602 8.146725 7.898549 4.028147 -4.768758 -0.431037 2.619098 0.000000 0.000000 0.000000 -7.643835 -1.270927 3.062790 -57.426245 -2.313524 4.749821 -4.122501 -4.398117 -0.006838 0.753942 4.779597 0.034403 -0.077038 0.047851 0.000000 0.000000 0.000000 0.000000 0.000000 0.000000 0.000000 19.469771 8.308231 -1.053473 81.579516 30.552906 29.849796 1.890782 33.829432 0.005953 3.304515 12.416221 0.370825 -0.036281 -0.233220 0.000000 0.000000 0.000000 0.000000 0.000000 0.000000 0.000000 
-4.391123 16.114188 0.227532 -8.153241 78.142393 20.045568 -8.519529 -1.498907 0.748165 -10.331019 -3.586773 -64.400604 -1.459251 2.235270 37.616095 1.790346 8.238006 -1.714867 1.512000 0.000001 -24.947100 11.596467 -1.878030 -3.696792 1.160245 -7.828866 -15.045407 0.298969 -3.217200 44.770467 0.150201 18.141844 24.024608 9.408000 -0.000001 -85.243900 -9.331021 1.140052 4.916060 -3.251600 1.424978 -2.345496 -7.674346 1.275039 -0.487841 7.939084 8.443326 4.402137 -4.820789 -0.434525 2.689275 0.000000 0.000000 0.000000 -7.718476 -1.761876 3.057324 -57.215909 -2.959371 5.219880 -4.125443 -3.106020 -0.007655 0.700989 5.460881 0.036701 -0.075470 0.055333 0.000000 0.000000 0.000000 0.000000 0.000000 0.000000 0.000000 19.520169 8.508056 -1.092952 82.195525 29.972790 26.447168 1.944902 30.475585 0.005261 3.316336 12.595230 0.376913 -0.035531 -0.219809 0.000000 0.000000 0.000000 0.000000 0.000000 0.000000 0.000000 
-4.255159 16.121899 0.217765 -7.015168 78.338984 21.273417 -8.448449 -1.556401 0.572864 -10.652316 -3.958535 -64.114177 -1.438535 2.254829 38.643458 1.875786 8.460515 -3.159061 1.301000 0.000000 -24.822699 11.711090 -1.738617 -3.872342 0.770836 -8.273600 -16.073120 0.194944 -3.356978 46.649582 -0.012807 17.641481 25.610747 9.655300 0.000000 -81.339900 -9.594233 1.113181 5.343235 -3.331237 1.393290 -2.224193 -7.698172 1.246369 -0.434045 7.653251 9.020094 4.820755 -4.867711 -0.437513 2.768526 0.000000 0.000000 0.000000 -7.786650 -2.135129 3.026385 -57.085959 -3.927905 5.679505 -4.105599 -1.899128 -0.008590 0.824287 6.211815 0.048300 -0.072771 0.063954 0.000000 0.000000 0.000000 0.000000 0.000000 0.000000 0.000000 19.453162 8.719003 -1.150113 82.766537 29.514816 22.291782 2.002531 26.974077 0.004637 3.185483 12.752430 0.365903 -0.032250 -0.206180 0.000000 0.000000 0.000000 0.000000 0.000000 0.000000 0.000000 
-4.121134 16.137934 0.205002 -6.140873 78.527540 22.221962 -8.385584 -1.604283 0.415802 -10.905841 -4.304826 -63.638707 -1.433160 2.238466 39.317392 1.958937 8.665657 -4.548141 1.083099 0.000000 -24.910900 11.803982 -1.597975 -4.044590 0.490462 -8.658787 -17.062597 0.099951 -3.489106 48.429195 -0.175732 16.770210 26.978955 9.603800 0.000000 -77.157400 -9.744949 1.114929 5.755803 -3.389265 1.388604 -2.090170 -7.706696 1.247140 -0.333781 7.306914 9.625360 5.270506 -4.910023 -0.439970 2.853832 0.000000 0.000000 0.000000 -7.854102 -2.385420 2.971965 -57.033214 -5.172770 6.132663 -4.063508 -0.839221 -0.009615 1.134745 6.990836 0.072801 -0.068832 0.073149 0.000000 0.000000 0.000000 0.000000 0.000000 0.000000 0.000000 19.292530 8.947300 -1.212840 83.220033 29.177759 17.399547 2.058118 23.420920 0.004155 2.871143 12.887749 0.332596 -0.026243 -0.193307 -0.000000 0.000000 0.000000 0.000000 0.000000 0.000000 0.000000 
